<svg xmlns="http://www.w3.org/2000/svg" viewBox="0 0 154.43 50.13"><defs><style>.cls-1{fill:#484698;}</style></defs><g id="Layer_2" data-name="Layer 2"><g id="Layer_1-2" data-name="Layer 1"><path class="cls-1" d="M50.13,25.06c0,.66,0,1.32-.08,2H45.51c.06-.64.1-1.3.1-2a20.54,20.54,0,0,0-41-2H9.91a15.29,15.29,0,0,1,30.31,0,14.86,14.86,0,0,1,.13,2,16.68,16.68,0,0,1-.13,2H26.35L22.6,23.59,22,23.06H36.38a11.47,11.47,0,1,0-1.82,8.47l2.81,2.61,3.86,3.59,3.32,3.09a23.88,23.88,0,0,1-2.77,2.92A25.06,25.06,0,0,1,.45,29.8H5.07A20.54,20.54,0,0,0,38.46,40.64L34.58,37A15.28,15.28,0,0,1,9.91,27H.08c0-.64-.08-1.3-.08-2a25.07,25.07,0,0,1,50.13,0Z"/><path class="cls-1" d="M58,28.45V6H71.07v1.6H59.62v8.47h9.63v1.61H59.62v9.18H71v1.6Z"/><path class="cls-1" d="M74.12,28.45,82.66,6h2.18l8.45,22.46h-1.8L89,21.68H78.33l-2.54,6.77Zm7.45-15.34-2.63,7h9.4l-2.66-7.16c-.3-.79-.56-1.48-.77-2.05s-.42-1.15-.61-1.72-.41-1.21-.64-1.91c-.24.75-.46,1.41-.66,2L82.36,11C82.13,11.59,81.87,12.3,81.57,13.11Z"/><path class="cls-1" d="M96,28.45V27.11L110.36,7.59H96.85V6h15.63V7.3L98.2,26.85h14.63v1.6Z"/><path class="cls-1" d="M116.46,28.45V27.11L130.81,7.59H117.29V6h15.63V7.3L118.64,26.85h14.64v1.6Z"/><path class="cls-1" d="M144.64,28.45V18.5L135.78,6h2l7.67,10.88L152.57,6h1.86l-8.22,12.45v10Z"/><path class="cls-1" d="M58,44V33.26h7.6v2.32H60.68v1.85H65v2.21H60.68v2h5.11V44Z"/><path class="cls-1" d="M68,44V33.26h4.55a5.65,5.65,0,0,1,2.79.68,4.86,4.86,0,0,1,1.89,1.9,6,6,0,0,1,0,5.57,4.86,4.86,0,0,1-1.89,1.9,5.65,5.65,0,0,1-2.79.68Zm4.47-8.32H70.73v5.91h1.71a2.45,2.45,0,0,0,1.93-.82,3.53,3.53,0,0,0,0-4.27A2.45,2.45,0,0,0,72.44,35.67Z"/><path class="cls-1" d="M84.44,44.08a5.13,5.13,0,0,1-2.39-.54A4.24,4.24,0,0,1,80.41,42a4,4,0,0,1-.6-2.17V33.26h2.78v6.47a1.93,1.93,0,0,0,.53,1.39,1.77,1.77,0,0,0,1.32.55,1.82,1.82,0,0,0,1.36-.55,1.87,1.87,0,0,0,.56-1.39V33.26h2.71v6.61a4,4,0,0,1-.6,2.17,4.2,4.2,0,0,1-1.65,1.5A5.12,5.12,0,0,1,84.44,44.08Z"/><path class="cls-1" d="M96.61,44.14a5.87,5.87,0,0,1-2.92-.71,5.16,5.16,0,0,1-2-2,6.1,6.1,0,0,1-.3-5.1,5.24,5.24,0,0,1,1.2-1.76,5.53,5.53,0,0,1,1.82-1.15A6.14,6.14,0,0,1,96.71,33a5.76,5.76,0,0,1,2.2.44,4.69,4.69,0,0,1,1.79,1.26L99,36.65a3.15,3.15,0,0,0-1-.78,2.78,2.78,0,0,0-1.31-.29,3,3,0,0,0-1.46.36,2.79,2.79,0,0,0-1,1.05,3.24,3.24,0,0,0-.39,1.62,2.88,2.88,0,0,0,.86,2.18,3.17,3.17,0,0,0,2.27.81,3.1,3.1,0,0,0,1.32-.29,3.39,3.39,0,0,0,1-.75l1.33,2.1a3.54,3.54,0,0,1-1,.76,6.06,6.06,0,0,1-1.41.53A6.42,6.42,0,0,1,96.61,44.14Z"/><path class="cls-1" d="M100.91,44l4.26-10.73h2.3L111.68,44h-2.77l-.72-2h-3.85l-.72,2Zm4.66-5.26L105.09,40h2.35L107,38.7l-.35-1-.33-1c-.1.34-.2.67-.32,1S105.71,38.36,105.57,38.73Z"/><path class="cls-1" d="M114.53,44V35.67h-3.2V33.26h9.25v2.41h-3.29V44Z"/><path class="cls-1" d="M122.21,44v-2.3h1.84V35.56h-1.84v-2.3h6.42v2.3h-1.82v6.13h1.82V44Z"/><path class="cls-1" d="M135.78,44.14a6,6,0,0,1-2.23-.41,5.3,5.3,0,0,1-1.78-1.17,5.14,5.14,0,0,1-1.16-1.76,5.7,5.7,0,0,1-.42-2.22,5.79,5.79,0,0,1,.42-2.23,5.18,5.18,0,0,1,1.16-1.77,5.13,5.13,0,0,1,1.78-1.16,5.83,5.83,0,0,1,2.23-.42,5.94,5.94,0,0,1,2.26.42,5.18,5.18,0,0,1,1.77,1.16A5.36,5.36,0,0,1,141,36.35a6,6,0,0,1,.41,2.23,5.91,5.91,0,0,1-.41,2.21A5.31,5.31,0,0,1,138,43.73,6.14,6.14,0,0,1,135.78,44.14Zm0-2.57a2.63,2.63,0,0,0,1.44-.39,2.86,2.86,0,0,0,1-1.07,3.09,3.09,0,0,0,.37-1.53,3.14,3.14,0,0,0-.37-1.55,2.83,2.83,0,0,0-1-1.06,2.71,2.71,0,0,0-1.44-.38A2.62,2.62,0,0,0,133.36,37a3.25,3.25,0,0,0-.36,1.55,3.2,3.2,0,0,0,.36,1.53,2.81,2.81,0,0,0,1,1.07A2.68,2.68,0,0,0,135.78,41.57Z"/><path class="cls-1" d="M143.37,44V33.26h2.47l4.82,6.59c0-.45-.09-.87-.13-1.26s-.06-.82-.07-1.27,0-1,0-1.56v-2.5h2.68V44h-2.5l-4.76-6.45c0,.45.08.82.11,1.13s0,.6.05.89,0,.62,0,1V44Z"/></g></g></svg>