<svg xmlns="http://www.w3.org/2000/svg" xmlns:xlink="http://www.w3.org/1999/xlink" viewBox="0 0 59.32 18.75"><defs><style>.cls-1{font-size:10.89px;font-family:Lexend-Bold, Lexend;font-weight:700;}.cls-1,.cls-2{fill:#484698;}.cls-2{font-size:5.83px;font-family:Montserrat-Regular, Montserrat;}.cls-3{letter-spacing:-0.01em;}.cls-4{letter-spacing:-0.07em;}.cls-5{fill:url(#linear-gradient);}</style><linearGradient id="linear-gradient" y1="9.38" x2="18.75" y2="9.38" gradientUnits="userSpaceOnUse"><stop offset="0" stop-color="#45aac6"/><stop offset="0.2" stop-color="#484698"/></linearGradient></defs><g id="Layer_2" data-name="Layer 2"><g id="Layer_1-2" data-name="Layer 1"><text class="cls-1" transform="translate(22.06 9.94)">EAZZY</text><text class="cls-2" transform="translate(22.67 16.61)">EDU<tspan class="cls-3" x="12.81" y="0">C</tspan><tspan class="cls-4" x="16.84" y="0">A</tspan><tspan x="20.75" y="0">TION</tspan></text><path class="cls-5" d="M9.38,0a9.38,9.38,0,1,0,9.37,9.38A9.38,9.38,0,0,0,9.38,0Zm5.85,9.84H14.16a3.67,3.67,0,0,0,0-.46,4.81,4.81,0,0,0-9.6-.47H5.83a3.58,3.58,0,0,1,7.1.94H9.68L8.8,9l-.13-.12H12a2.69,2.69,0,1,0-2.65,3.16,2.74,2.74,0,0,0,2.22-1.18l.66.61.9.84.78.73a6,6,0,0,1-.65.68,5.87,5.87,0,0,1-9.67-3.26H4.7a4.81,4.81,0,0,0,4.68,3.7A4.75,4.75,0,0,0,12.51,13l-.91-.84A3.58,3.58,0,0,1,5.83,9.84H3.53c0-.16,0-.31,0-.46a5.87,5.87,0,1,1,11.74,0C15.25,9.53,15.24,9.68,15.23,9.84Z"/></g></g></svg>